<svg width="96" height="24" viewBox="0 0 96 24" fill="none" xmlns="http://www.w3.org/2000/svg">
<path d="M7.42 3.56C8.3 3.56 9.02 3.69333 9.58 3.96C10.1533 4.21333 10.66 4.51333 11.1 4.86C11.3667 5.06 11.5667 5.08667 11.7 4.94C11.8467 4.78 11.9467 4.41333 12 3.84H12.46C12.4333 4.33333 12.4133 4.93333 12.4 5.64C12.3867 6.34667 12.38 7.28 12.38 8.44H11.92C11.8267 7.86667 11.74 7.41333 11.66 7.08C11.58 6.73333 11.48 6.44 11.36 6.2C11.2533 5.96 11.1067 5.72 10.92 5.48C10.5067 4.93333 9.98667 4.54 9.36 4.3C8.73333 4.04667 8.07333 3.92 7.38 3.92C6.72667 3.92 6.13333 4.08667 5.6 4.42C5.08 4.74 4.62667 5.20667 4.24 5.82C3.86667 6.43333 3.57333 7.17333 3.36 8.04C3.16 8.90667 3.06 9.88 3.06 10.96C3.06 12.08 3.17333 13.0733 3.4 13.94C3.62667 14.7933 3.94 15.5133 4.34 16.1C4.75333 16.6867 5.23333 17.1333 5.78 17.44C6.34 17.7333 6.94 17.88 7.58 17.88C8.18 17.88 8.80667 17.76 9.46 17.52C10.1133 17.28 10.6267 16.8933 11 16.36C11.2933 15.9733 11.4933 15.5533 11.6 15.1C11.72 14.6467 11.8267 14.0133 11.92 13.2H12.38C12.38 14.4133 12.3867 15.3933 12.4 16.14C12.4133 16.8733 12.4333 17.4933 12.46 18H12C11.9467 17.4267 11.8533 17.0667 11.72 16.92C11.6 16.7733 11.3933 16.7933 11.1 16.98C10.6067 17.3267 10.08 17.6333 9.52 17.9C8.97333 18.1533 8.26667 18.28 7.4 18.28C6.13333 18.28 5.02 17.9933 4.06 17.42C3.11333 16.8467 2.37333 16.02 1.84 14.94C1.32 13.86 1.06 12.56 1.06 11.04C1.06 9.54667 1.33333 8.24 1.88 7.12C2.42667 6 3.17333 5.12667 4.12 4.5C5.08 3.87333 6.18 3.56 7.42 3.56ZM20.5695 7.42C20.9295 7.42 21.2429 7.49333 21.5095 7.64C21.7895 7.78667 22.0029 7.98 22.1495 8.22C22.3095 8.44667 22.3895 8.70667 22.3895 9C22.3895 9.33333 22.2829 9.62667 22.0695 9.88C21.8695 10.1333 21.5962 10.26 21.2495 10.26C20.9695 10.26 20.7229 10.1733 20.5095 10C20.2962 9.81333 20.1895 9.55333 20.1895 9.22C20.1895 8.96667 20.2562 8.75333 20.3895 8.58C20.5362 8.39333 20.6962 8.24667 20.8695 8.14C20.7762 8.00667 20.6362 7.94 20.4495 7.94C20.0362 7.94 19.6562 8.06667 19.3095 8.32C18.9629 8.56 18.6695 8.87333 18.4295 9.26C18.1895 9.64667 18.0029 10.06 17.8695 10.5C17.7362 10.9267 17.6695 11.3267 17.6695 11.7V15.94C17.6695 16.5933 17.8562 17.0333 18.2295 17.26C18.6162 17.4733 19.1362 17.58 19.7895 17.58V18C19.4829 17.9867 19.0495 17.9733 18.4895 17.96C17.9295 17.9333 17.3362 17.92 16.7095 17.92C16.2562 17.92 15.8029 17.9333 15.3495 17.96C14.9095 17.9733 14.5762 17.9867 14.3495 18V17.58C14.8962 17.58 15.2829 17.48 15.5095 17.28C15.7495 17.08 15.8695 16.7 15.8695 16.14V9.88C15.8695 9.28 15.7629 8.84 15.5495 8.56C15.3362 8.26667 14.9362 8.12 14.3495 8.12V7.7C14.7762 7.74 15.1895 7.76 15.5895 7.76C15.9762 7.76 16.3429 7.74 16.6895 7.7C17.0495 7.64667 17.3762 7.57333 17.6695 7.48V9.98C17.8162 9.59333 18.0229 9.20667 18.2895 8.82C18.5695 8.42 18.9029 8.08667 19.2895 7.82C19.6762 7.55333 20.1029 7.42 20.5695 7.42ZM26.0958 18.14C25.5491 18.14 25.0758 18.04 24.6758 17.84C24.2758 17.6267 23.9691 17.3333 23.7558 16.96C23.5558 16.5867 23.4558 16.1533 23.4558 15.66C23.4558 15.0733 23.5891 14.5933 23.8558 14.22C24.1358 13.8467 24.4891 13.5467 24.9158 13.32C25.3424 13.0933 25.7891 12.9067 26.2558 12.76C26.7358 12.6 27.1891 12.4533 27.6158 12.32C28.0424 12.1733 28.3891 12.0067 28.6558 11.82C28.9358 11.6333 29.0758 11.3867 29.0758 11.08V9.84C29.0758 9.28 28.9891 8.85333 28.8158 8.56C28.6558 8.26667 28.4358 8.07333 28.1558 7.98C27.8758 7.87333 27.5624 7.82 27.2158 7.82C26.8824 7.82 26.5224 7.86667 26.1358 7.96C25.7624 8.05333 25.4624 8.24667 25.2358 8.54C25.4891 8.59333 25.7091 8.72667 25.8958 8.94C26.0824 9.15333 26.1758 9.42667 26.1758 9.76C26.1758 10.0933 26.0691 10.36 25.8558 10.56C25.6424 10.7467 25.3691 10.84 25.0358 10.84C24.6491 10.84 24.3624 10.72 24.1758 10.48C24.0024 10.2267 23.9158 9.94667 23.9158 9.64C23.9158 9.29333 24.0024 9.01333 24.1758 8.8C24.3491 8.58667 24.5691 8.38667 24.8358 8.2C25.1424 7.98667 25.5358 7.80667 26.0158 7.66C26.5091 7.5 27.0624 7.42 27.6758 7.42C28.2224 7.42 28.6891 7.48667 29.0758 7.62C29.4624 7.74 29.7824 7.92 30.0358 8.16C30.3824 8.48 30.6091 8.87333 30.7158 9.34C30.8224 9.79333 30.8758 10.34 30.8758 10.98V16.54C30.8758 16.8733 30.9224 17.1133 31.0158 17.26C31.1224 17.4067 31.2824 17.48 31.4958 17.48C31.6424 17.48 31.7824 17.4467 31.9158 17.38C32.0491 17.3133 32.2091 17.2067 32.3958 17.06L32.6158 17.4C32.3358 17.6133 32.0691 17.7933 31.8158 17.94C31.5624 18.0733 31.2224 18.14 30.7958 18.14C30.4091 18.14 30.0891 18.0733 29.8358 17.94C29.5824 17.8067 29.3891 17.6133 29.2558 17.36C29.1358 17.0933 29.0758 16.76 29.0758 16.36C28.7158 16.96 28.2824 17.4067 27.7758 17.7C27.2824 17.9933 26.7224 18.14 26.0958 18.14ZM26.8158 17.34C27.2558 17.34 27.6624 17.2133 28.0358 16.96C28.4224 16.7067 28.7691 16.3267 29.0758 15.82V11.9C28.9158 12.1267 28.6824 12.32 28.3758 12.48C28.0691 12.6267 27.7358 12.78 27.3758 12.94C27.0158 13.0867 26.6691 13.2667 26.3358 13.48C26.0158 13.68 25.7491 13.9467 25.5358 14.28C25.3224 14.6133 25.2158 15.0467 25.2158 15.58C25.2158 16.1133 25.3558 16.54 25.6358 16.86C25.9291 17.18 26.3224 17.34 26.8158 17.34ZM38.1567 2.36C38.5301 2.36 38.8567 2.41333 39.1367 2.52C39.4301 2.61333 39.6834 2.74 39.8967 2.9C40.0967 3.06 40.2501 3.24667 40.3567 3.46C40.4634 3.67333 40.5167 3.9 40.5167 4.14C40.5167 4.44667 40.4167 4.7 40.2167 4.9C40.0167 5.1 39.7634 5.2 39.4567 5.2C39.1634 5.2 38.9034 5.10667 38.6767 4.92C38.4634 4.72 38.3567 4.45333 38.3567 4.12C38.3567 3.84 38.4301 3.61333 38.5767 3.44C38.7367 3.26667 38.9434 3.15333 39.1967 3.1C39.1567 2.98 39.0501 2.88 38.8767 2.8C38.7167 2.70667 38.4967 2.66 38.2167 2.66C37.9101 2.66 37.6434 2.72667 37.4167 2.86C37.2034 2.99333 37.0367 3.17333 36.9167 3.4C36.7567 3.68 36.6567 4.1 36.6167 4.66C36.5767 5.20667 36.5567 6.05333 36.5567 7.2V7.72H38.6967V8.12H36.5567V15.94C36.5567 16.5933 36.7434 17.0333 37.1167 17.26C37.5034 17.4733 38.0234 17.58 38.6767 17.58V18C38.3701 17.9867 37.9367 17.9733 37.3767 17.96C36.8167 17.9333 36.2234 17.92 35.5967 17.92C35.1434 17.92 34.6901 17.9333 34.2367 17.96C33.7967 17.9733 33.4634 17.9867 33.2367 18V17.58C33.7834 17.58 34.1701 17.48 34.3967 17.28C34.6367 17.08 34.7567 16.7 34.7567 16.14V8.12H33.1567V7.72H34.7567C34.7567 6.93333 34.7901 6.27333 34.8567 5.74C34.9234 5.20667 35.0301 4.75333 35.1767 4.38C35.3234 3.99333 35.5234 3.65333 35.7767 3.36C36.0434 3.05333 36.3834 2.81333 36.7967 2.64C37.2101 2.45333 37.6634 2.36 38.1567 2.36ZM43.0773 4.38V7.72H46.0373V8.12H43.0773V15.86C43.0773 16.4867 43.1907 16.9267 43.4173 17.18C43.644 17.4333 43.9573 17.56 44.3573 17.56C44.7573 17.56 45.104 17.4 45.3973 17.08C45.6907 16.7467 45.944 16.1933 46.1573 15.42L46.5573 15.52C46.424 16.2933 46.1573 16.9467 45.7573 17.48C45.3707 18.0133 44.7707 18.28 43.9573 18.28C43.504 18.28 43.1307 18.22 42.8373 18.1C42.544 17.9933 42.284 17.8333 42.0573 17.62C41.764 17.3133 41.5573 16.9467 41.4373 16.52C41.3307 16.0933 41.2773 15.5267 41.2773 14.82V8.12H39.3573V7.72H41.2773V4.66C41.6107 4.64667 41.9307 4.62 42.2373 4.58C42.544 4.54 42.824 4.47333 43.0773 4.38ZM51.7877 7.42C52.961 7.42 53.8743 7.78 54.5277 8.5C55.1943 9.20667 55.5277 10.3133 55.5277 11.82H48.4677L48.4477 11.44H53.6077C53.6343 10.7867 53.581 10.1867 53.4477 9.64C53.3143 9.08 53.101 8.63333 52.8077 8.3C52.5277 7.96667 52.161 7.8 51.7077 7.8C51.0943 7.8 50.5477 8.10667 50.0677 8.72C49.601 9.33333 49.321 10.3067 49.2277 11.64L49.2877 11.72C49.261 11.92 49.241 12.14 49.2277 12.38C49.2143 12.62 49.2077 12.86 49.2077 13.1C49.2077 14.0067 49.3543 14.7867 49.6477 15.44C49.941 16.0933 50.321 16.5933 50.7877 16.94C51.2677 17.2733 51.761 17.44 52.2677 17.44C52.6677 17.44 53.0477 17.38 53.4077 17.26C53.7677 17.1267 54.101 16.9133 54.4077 16.62C54.7143 16.3267 54.981 15.9333 55.2077 15.44L55.6077 15.6C55.461 16.04 55.221 16.4667 54.8877 16.88C54.5543 17.2933 54.1343 17.6333 53.6277 17.9C53.121 18.1533 52.5343 18.28 51.8677 18.28C50.9077 18.28 50.081 18.06 49.3877 17.62C48.7077 17.18 48.181 16.5733 47.8077 15.8C47.4477 15.0133 47.2677 14.1133 47.2677 13.1C47.2677 11.9267 47.4543 10.92 47.8277 10.08C48.201 9.22667 48.7277 8.57333 49.4077 8.12C50.0877 7.65333 50.881 7.42 51.7877 7.42ZM62.0448 7.42C62.4715 7.42 62.8848 7.47333 63.2848 7.58C63.6848 7.68667 64.0448 7.84667 64.3648 8.06C64.6715 8.26 64.9048 8.49333 65.0648 8.76C65.2248 9.01333 65.3048 9.29333 65.3048 9.6C65.3048 9.96 65.2048 10.24 65.0048 10.44C64.8048 10.6267 64.5515 10.72 64.2448 10.72C63.9515 10.72 63.6915 10.6333 63.4648 10.46C63.2515 10.2867 63.1448 10.04 63.1448 9.72C63.1448 9.41333 63.2248 9.16667 63.3848 8.98C63.5582 8.79333 63.7582 8.67333 63.9848 8.62C63.8515 8.38 63.6115 8.18 63.2648 8.02C62.9315 7.86 62.5715 7.78 62.1848 7.78C61.8515 7.78 61.5182 7.86 61.1848 8.02C60.8515 8.18 60.5448 8.44667 60.2648 8.82C59.9848 9.18 59.7582 9.68 59.5848 10.32C59.4115 10.9467 59.3248 11.7333 59.3248 12.68C59.3248 13.8533 59.4582 14.7867 59.7248 15.48C59.9915 16.1733 60.3382 16.6733 60.7648 16.98C61.2048 17.2733 61.6848 17.42 62.2048 17.42C62.5515 17.42 62.9048 17.3533 63.2648 17.22C63.6248 17.0867 63.9648 16.8733 64.2848 16.58C64.6048 16.2733 64.8782 15.8667 65.1048 15.36L65.4848 15.5C65.3515 15.9267 65.1315 16.36 64.8248 16.8C64.5182 17.2267 64.1182 17.58 63.6248 17.86C63.1315 18.14 62.5248 18.28 61.8048 18.28C60.9782 18.28 60.2315 18.0667 59.5648 17.64C58.8982 17.2133 58.3648 16.6067 57.9648 15.82C57.5782 15.02 57.3848 14.0733 57.3848 12.98C57.3848 11.8867 57.5782 10.9267 57.9648 10.1C58.3648 9.26 58.9182 8.60667 59.6248 8.14C60.3315 7.66 61.1382 7.42 62.0448 7.42ZM69.9914 4.38V7.72H72.9514V8.12H69.9914V15.86C69.9914 16.4867 70.1047 16.9267 70.3314 17.18C70.5581 17.4333 70.8714 17.56 71.2714 17.56C71.6714 17.56 72.0181 17.4 72.3114 17.08C72.6047 16.7467 72.8581 16.1933 73.0714 15.42L73.4714 15.52C73.3381 16.2933 73.0714 16.9467 72.6714 17.48C72.2847 18.0133 71.6847 18.28 70.8714 18.28C70.4181 18.28 70.0447 18.22 69.7514 18.1C69.4581 17.9933 69.1981 17.8333 68.9714 17.62C68.6781 17.3133 68.4714 16.9467 68.3514 16.52C68.2447 16.0933 68.1914 15.5267 68.1914 14.82V8.12H66.2714V7.72H68.1914V4.66C68.5247 4.64667 68.8447 4.62 69.1514 4.58C69.4581 4.54 69.7381 4.47333 69.9914 4.38Z" fill="#D1AC00"/>
<rect y="23" width="76" height="1" fill="#D1AC00"/>
<rect x="76" y="12" width="1" height="12" fill="#D1AC00"/>
<rect x="77" y="12" width="3" height="1" fill="#D1AC00"/>
<rect x="80" width="1" height="13" fill="#D1AC00"/>
<rect x="81" width="5" height="1" fill="#D1AC00"/>
<rect x="86" width="1" height="4" fill="#D1AC00"/>
<rect x="87" y="3" width="2" height="1" fill="#D1AC00"/>
<rect x="89" y="3" width="1" height="14" fill="#D1AC00"/>
<path d="M90 16H93V17H90V16Z" fill="#D1AC00"/>
<rect x="93" y="16" width="1" height="8" fill="#D1AC00"/>
<rect x="94" y="23" width="2" height="1" fill="#D1AC00"/>
</svg>
