<svg width="80" height="81" viewBox="0 0 80 81" fill="none" xmlns="http://www.w3.org/2000/svg">
<g clip-path="url(#clip0_121_52)">
<path d="M28.6054 70.8473C28.1448 70.4873 27.6327 70.1984 27.0862 69.99C26.5748 69.8103 26.0389 69.7094 25.497 69.6909C24.323 69.6778 23.1526 69.8252 22.0188 70.1297C20.8594 70.4187 19.75 70.7572 18.9305 71.0366C18.1109 71.3154 17.5711 71.5249 17.5711 71.5249C17.5711 71.5249 18.1009 71.8241 18.9405 72.1829C19.9917 72.6378 21.0916 72.9721 22.2187 73.1793C23.4926 73.4288 24.8059 73.3984 26.0667 73.0897C26.6478 72.9655 27.1868 72.6939 27.6316 72.3011C28.0765 71.9082 28.4119 71.4073 28.6054 70.8473Z" fill="#C4A386"/>
<path d="M25.0667 65.7243C25.498 66.7596 26.1859 67.6682 27.0657 68.3655C27.4827 68.6891 27.968 68.9142 28.485 69.0234C29.0178 69.1321 29.571 69.0802 30.0741 68.8736C30.1088 67.8175 29.8232 66.7757 29.2545 65.8843C28.7115 65.0563 28.0363 64.3219 27.2556 63.7118C26.5774 63.1673 25.8664 62.6646 25.1267 62.2067C24.537 61.8378 24.1272 61.6288 24.1272 61.6288C24.1272 61.6288 24.1272 61.7584 24.1272 61.9876C24.1272 62.2169 24.1872 62.5255 24.2571 62.9243C24.4115 63.8873 24.6834 64.8276 25.0667 65.7243Z" fill="#C4A386"/>
<path d="M16.7309 68.4157C17.2957 68.4091 17.8515 68.2736 18.3557 68.0199C18.8599 67.7655 19.299 67.4002 19.6394 66.9506C19.3736 66.4814 19.0151 66.0706 18.5856 65.7434C18.1561 65.4163 17.6646 65.1793 17.1407 65.0467C16.0096 64.7452 14.8434 64.5942 13.6725 64.5984C12.4831 64.5984 11.2937 64.5984 10.4043 64.5984H8.915C8.915 64.5984 9.02497 64.7279 9.22485 64.9273C9.42473 65.1267 9.73458 65.396 10.1144 65.7046C11.0284 66.4557 12.0363 67.0855 13.1128 67.5781C14.2376 68.1327 15.4761 68.4193 16.7309 68.4157Z" fill="#C4A386"/>
<path d="M18.9902 63.861C19.3001 64.2861 19.7104 64.6288 20.1845 64.8581C20.6587 65.0879 21.1822 65.1972 21.7088 65.1769C22.1247 64.1757 22.1497 63.0557 21.7788 62.0378C21.4238 61.1022 20.9247 60.2282 20.2995 59.4467C19.7299 58.6694 19.1502 58.0014 18.7304 57.5333C18.5205 57.2837 18.3406 57.0945 18.2206 56.9649L18.0308 56.7655C18.0308 56.7655 18.0308 56.8855 17.9308 57.0945C17.8554 57.3936 17.7954 57.6963 17.7509 58.0014C17.6037 58.956 17.6037 59.9273 17.7509 60.8814C17.9075 61.9625 18.3336 62.987 18.9902 63.861Z" fill="#C4A386"/>
<path d="M4.73732 55.5597C3.91774 55.3006 3.37803 55.1511 3.37803 55.1511C3.37803 55.1511 3.428 55.2907 3.53798 55.5199C3.64789 55.7491 3.81779 56.0581 4.02771 56.4367C4.23756 56.8157 4.49744 57.2539 4.79732 57.7124C4.94723 57.9416 5.10711 58.1709 5.27702 58.4097L5.40699 58.5894L5.5769 58.8085L5.92669 59.2473C6.7901 60.3321 7.93887 61.1572 9.24496 61.6288C9.78586 61.8276 10.3679 61.8891 10.9386 61.8073C11.5093 61.7255 12.0505 61.5034 12.5133 61.1608C12.2464 60.0957 11.6043 59.1619 10.7042 58.5297C10.4943 58.3601 10.2545 58.2007 10.0146 58.0312L9.25499 57.553L8.44538 57.0843C8.19553 56.9452 7.93565 56.8157 7.67577 56.6957C6.72293 56.2519 5.74126 55.8723 4.73732 55.5597Z" fill="#C4A386"/>
<path d="M12.7937 57.6127C12.9295 58.1165 13.1987 58.575 13.5733 58.9398C13.9478 59.3046 14.4139 59.5619 14.9226 59.6855C15.5822 58.8509 15.9569 57.8276 15.992 56.7655C16.0184 55.8814 15.9582 54.9969 15.8121 54.1245C15.7519 53.6829 15.6584 53.2465 15.5323 52.819C15.4023 52.3805 15.2724 51.9818 15.1425 51.653C15.0125 51.3241 14.9026 51.0451 14.8227 50.8557L14.7127 50.5568L14.5028 50.8557C14.3729 51.055 14.2129 51.3341 14.033 51.6829C13.5686 52.5693 13.1968 53.501 12.9236 54.4633C12.8536 54.7324 12.7837 55.0115 12.7237 55.2905C12.6717 55.5539 12.635 55.8201 12.6138 56.0878C12.5888 56.353 12.5888 56.6198 12.6138 56.8849C12.6507 57.1327 12.7109 57.3762 12.7937 57.6127Z" fill="#C4A386"/>
<path d="M3.47791 51.4734C3.67343 51.6998 3.8874 51.9098 4.11761 52.1012C4.33403 52.288 4.5646 52.4579 4.80722 52.6094C5.26048 52.9394 5.78274 53.1629 6.33492 53.263C6.8871 53.3631 7.45481 53.3373 7.99558 53.1874C8.09021 52.6556 8.05594 52.1089 7.89564 51.5929C7.82155 51.3486 7.71749 51.1143 7.58579 50.8953C7.45546 50.6679 7.31194 50.4483 7.156 50.2376C6.43964 49.3399 5.57421 48.5714 4.59731 47.9654C3.73713 47.36 2.8428 46.8043 1.91874 46.3011L0.659399 45.6234C0.659399 45.6234 0.659398 45.7729 0.739339 46.022C0.819339 46.2712 0.909249 46.62 1.05916 47.0186C1.38017 48.0682 1.83355 49.0728 2.40847 50.0083C2.728 50.5225 3.08549 51.0122 3.47791 51.4734Z" fill="#C4A386"/>
<path d="M9.73477 51.0549C9.95906 51.5273 10.3037 51.9328 10.7342 52.2309C11.6947 51.6943 12.4106 50.809 12.7332 49.7594C12.8129 49.5147 12.8763 49.265 12.9231 49.012L12.9831 48.6333C12.9831 48.5137 12.9831 48.3841 13.043 48.2546C13.1026 47.7453 13.1226 47.2322 13.103 46.7198C13.0696 45.8521 12.9861 44.9869 12.8531 44.1287C12.7932 43.7899 12.7332 43.5108 12.6932 43.3215C12.6532 43.1321 12.6332 43.0225 12.6332 43.0225L12.3834 43.2717C12.1607 43.4924 11.9505 43.7253 11.7537 43.9693C11.1336 44.7266 10.5975 45.5486 10.1545 46.4208C9.66647 47.4041 9.4036 48.4831 9.38492 49.58C9.38736 49.8389 9.42092 50.0965 9.48486 50.3474C9.54133 50.5918 9.62515 50.8292 9.73477 51.0549Z" fill="#C4A386"/>
<path d="M1.45922 42.006C1.59916 42.2705 1.75958 42.5237 1.93899 42.7634C2.11982 42.9961 2.31684 43.216 2.52866 43.4212C2.91123 43.8229 3.37899 44.1343 3.89779 44.3326C4.4166 44.5308 4.97326 44.611 5.52711 44.5672C5.72544 44.0674 5.79756 43.5267 5.73702 42.9926C5.70639 42.7383 5.6495 42.4878 5.56711 42.2452C5.50305 41.9933 5.41947 41.7467 5.3172 41.5077C5.07648 41.0033 4.77797 40.5284 4.4277 40.0926L3.88794 39.4149C3.70806 39.1856 3.50818 38.9664 3.31827 38.7472C2.52866 37.8901 1.66913 37.0929 1.05946 36.5049C0.449791 35.9169 0 35.5282 0 35.5282C0 35.5282 0 36.1262 0 37.0231C0.0466269 37.5381 0.12 38.0504 0.21988 38.5578C0.27988 38.8369 0.339821 39.1259 0.409791 39.4149C0.474507 39.7121 0.557971 40.005 0.659642 40.2918C0.88621 40.8809 1.15337 41.4537 1.45922 42.006Z" fill="#C4A386"/>
<path d="M8.40569 43.9194C9.42946 43.5771 10.2883 42.8664 10.8145 41.9262C10.9424 41.7095 11.0526 41.4829 11.1443 41.2486C11.2587 41.0191 11.3588 40.7828 11.4441 40.541C11.6015 40.0761 11.7218 39.5996 11.804 39.1159C11.8939 38.6475 11.9938 38.1891 12.0438 37.7705C12.0438 37.5512 12.0438 37.352 12.1038 37.1626C12.1637 36.9732 12.1038 36.7939 12.1038 36.6244C12.1588 36.2613 12.1922 35.8953 12.2037 35.5282C12.2037 35.5282 11.764 35.7773 11.1343 36.2258L10.6246 36.6045C10.4447 36.754 10.2647 36.9035 10.0849 37.0729C9.69453 37.4212 9.33041 37.7976 8.99543 38.1991C8.82552 38.4083 8.65561 38.6276 8.49567 38.8568L8.27579 39.2056L8.08587 39.5744C7.84778 40.0513 7.67304 40.5572 7.56617 41.0792C7.51047 41.3311 7.48366 41.5886 7.48617 41.8465C7.50098 42.0958 7.54116 42.3429 7.60611 42.584C7.74981 43.0917 8.02569 43.5524 8.40569 43.9194Z" fill="#C4A386"/>
<path d="M4.24827 29.5487C3.97841 29.0305 3.68856 28.5521 3.40874 28.0638L2.63913 26.8181C2.18934 26.0906 1.85955 25.6222 1.85955 25.6222C1.85955 25.6222 1.68964 26.1903 1.5097 27.0672C1.44976 27.5157 1.37979 28.0638 1.33979 28.6119C1.33979 28.891 1.33979 29.19 1.33979 29.489C1.33979 29.7879 1.33979 30.0968 1.33979 30.4058C1.3885 31.0242 1.4888 31.6376 1.63967 32.2395C1.79692 32.8168 2.03227 33.37 2.33931 33.8839C2.61525 34.3639 2.99877 34.7739 3.46003 35.0816C3.92122 35.3894 4.44755 35.5866 4.99788 35.6578C5.14755 35.4311 5.26844 35.1867 5.3577 34.9303C5.45215 34.6894 5.51919 34.4386 5.55758 34.1828C5.6343 33.6716 5.61053 33.1503 5.48767 32.6481C5.37322 32.1094 5.20928 31.5823 4.99788 31.0735C4.778 30.5453 4.50815 30.0072 4.24827 29.5487Z" fill="#C4A386"/>
<path d="M10.7148 34.0532C11.0684 33.7076 11.3773 33.3193 11.6343 32.8972C11.915 32.5015 12.1592 32.0812 12.3639 31.6415C12.4739 31.4322 12.5538 31.223 12.6537 31.0236L12.9136 30.4257C13.0736 30.037 13.1935 29.6783 13.3034 29.3693C13.5333 28.7614 13.6432 28.3728 13.6432 28.3728C13.2268 28.4802 12.8164 28.61 12.4139 28.7614C11.5141 29.0986 10.6637 29.5544 9.88521 30.1168C9.65781 30.2719 9.44079 30.4417 9.23554 30.625C9.03572 30.8077 8.84557 31.0006 8.66587 31.203C8.30718 31.6038 8.00766 32.0534 7.77631 32.5384C7.57166 32.9964 7.4661 33.4921 7.46646 33.9935C7.45966 34.243 7.49339 34.4921 7.5664 34.7309C7.64861 34.9867 7.76282 35.2311 7.90622 35.4584C8.97864 35.3327 9.97267 34.8353 10.7148 34.0532Z" fill="#C4A386"/>
<path d="M7.20594 26.3398C7.362 26.137 7.49292 25.9162 7.59579 25.6821C7.69448 25.4514 7.76821 25.2109 7.81567 24.9645C7.81567 24.7154 7.88558 24.4563 7.91561 24.1971C7.94791 23.654 7.9177 23.109 7.82564 22.5727C7.74952 21.9987 7.63937 21.4296 7.49579 20.8686C7.20594 19.7325 6.89615 18.6661 6.6063 17.8788C6.31644 17.0915 6.1365 16.4935 6.1365 16.4935C6.1365 16.4935 6.05657 16.6232 5.93663 16.8424C5.81669 17.0616 5.65674 17.4005 5.46689 17.839C5.0143 18.8403 4.67895 19.8903 4.46737 20.9682C4.36815 21.5648 4.31137 22.1675 4.29746 22.7721C4.30092 23.0722 4.32427 23.3719 4.36743 23.6689C4.4143 23.9547 4.4777 24.2376 4.55734 24.5161C4.70253 25.0469 4.96176 25.54 5.31692 25.9611C5.68027 26.4004 6.14737 26.7429 6.67627 26.9577C6.88021 26.7767 7.05842 26.5688 7.20594 26.3398Z" fill="#C4A386"/>
<path d="M16.6815 22.0147C16.7914 21.8552 16.8414 21.7655 16.8414 21.7655H16.4916C16.2517 21.7655 15.9418 21.7655 15.5621 21.8453C15.1822 21.925 14.7325 21.9649 14.2527 22.0745C14.0129 22.1243 13.763 22.1941 13.5131 22.2638C13.2633 22.3336 13.0234 22.4332 12.7735 22.5329C12.2622 22.7263 11.773 22.9735 11.3142 23.2704C10.8762 23.5498 10.4763 23.8847 10.1249 24.267C9.9632 24.4588 9.82558 24.6696 9.71508 24.8948C9.60678 25.1153 9.51979 25.3455 9.45526 25.5824C9.38702 25.8223 9.3534 26.0706 9.35525 26.3199C9.3771 26.5869 9.42737 26.8508 9.50523 27.1072C10.0498 27.2129 10.6098 27.2129 11.1544 27.1072C11.6514 26.9936 12.1295 26.809 12.5736 26.5591C12.7835 26.4295 12.9934 26.3 13.1933 26.1505L13.4731 25.9213L13.763 25.6821C14.1242 25.3791 14.4586 25.0457 14.7625 24.6855C15.0625 24.3708 15.3429 24.0379 15.602 23.6889L15.7819 23.4298L15.9519 23.2006C16.0718 23.0412 16.1717 22.8917 16.2616 22.7621C16.3516 22.6326 16.5915 22.1841 16.6815 22.0147Z" fill="#C4A386"/>
<path d="M10.4645 19.0049C10.9368 18.7748 11.3453 18.4326 11.6539 18.0083C11.9632 17.6042 12.1906 17.1438 12.3235 16.6529C12.8673 14.5595 12.7234 12.3352 12.5334 10.2051C12.4434 9.37789 12.3535 8.8198 12.3535 8.8198C11.9491 9.13343 11.643 9.49749 11.344 9.91604C11.041 10.3119 10.7607 10.7244 10.5044 11.1518C10.206 11.6497 9.93894 12.1655 9.70485 12.6965C9.4673 13.251 9.27673 13.8244 9.13518 14.4107C9.01667 14.9806 8.96963 15.5631 8.99524 16.1447C9.00921 16.7008 9.14855 17.2467 9.40288 17.7418C9.65721 18.2369 10.0201 18.6686 10.4645 19.0049Z" fill="#C4A386"/>
<path d="M18.8598 18.4067C19.2496 18.1177 19.6095 17.8387 19.9293 17.5596C20.2491 17.2806 20.549 17.0115 20.7788 16.7823C21.0087 16.5531 21.2186 16.3538 21.3486 16.2143L21.5584 15.995C21.1355 15.91 20.7086 15.8468 20.2791 15.8057C19.8506 15.7639 19.4201 15.7473 18.9897 15.7559C18.4676 15.7522 17.946 15.7922 17.4306 15.8755C16.3537 16.0002 15.324 16.3869 14.4321 17.0016C14.0289 17.3048 13.6893 17.6841 13.4327 18.1177C13.2065 18.5719 13.0998 19.0761 13.1228 19.5827C14.1092 20.0081 15.2164 20.0647 16.2412 19.7422C16.7218 19.6032 17.1846 19.4093 17.6205 19.1642C18.0521 18.9432 18.4665 18.69 18.8598 18.4067Z" fill="#C4A386"/>
<path d="M15.6685 13.8665C16.2565 13.8665 17.1741 13.9203 17.9207 13.4042C18.1232 13.2562 18.3167 13.0965 18.5003 12.9258C18.6926 12.7557 18.873 12.5725 19.0401 12.3777C19.401 11.9889 19.735 11.576 20.0396 11.1419C20.6193 10.2849 21.119 9.39793 21.4788 8.73023C21.6587 8.40134 21.7844 8.11249 21.8843 7.9132L21.952 7.74296L21.9885 7.62402L21.5229 7.65667C21.2129 7.69751 21.0317 7.72474 20.7292 7.80343C19.7743 8.0451 18.8541 8.40677 17.9906 8.87973C16.9931 9.39441 16.1305 10.1351 15.472 11.0423C15.1664 11.4733 14.9615 11.9671 14.8723 12.4874C14.7728 12.9236 14.7756 13.3615 14.8723 13.8128" fill="#C4A386"/>
<path d="M51.3946 70.8473C51.8553 70.4873 52.3673 70.1984 52.9138 69.99C53.4252 69.8103 53.9611 69.7094 54.503 69.6909C55.6771 69.6778 56.8474 69.8252 57.9812 70.1297C59.1406 70.4187 60.25 70.7572 61.0695 71.0366C61.8891 71.3154 62.4289 71.5249 62.4289 71.5249C62.4289 71.5249 61.8992 71.8241 61.0596 72.1829C60.0083 72.6378 58.9085 72.9721 57.7813 73.1793C56.5074 73.4288 55.1941 73.3984 53.9333 73.0897C53.3522 72.9655 52.8132 72.6939 52.3684 72.3011C51.9236 71.9082 51.5882 71.4073 51.3946 70.8473Z" fill="#C4A386"/>
<path d="M54.9333 65.7243C54.502 66.7596 53.8142 67.6682 52.9344 68.3655C52.5173 68.6891 52.032 68.9142 51.5151 69.0234C50.9822 69.1321 50.429 69.0802 49.9259 68.8736C49.8912 67.8175 50.1769 66.7757 50.7455 65.8843C51.2885 65.0563 51.9637 64.3219 52.7444 63.7118C53.4227 63.1673 54.1336 62.6646 54.8733 62.2067C55.463 61.8378 55.8728 61.6288 55.8728 61.6288C55.8728 61.6288 55.8728 61.7584 55.8728 61.9876C55.8728 62.2169 55.8129 62.5255 55.7429 62.9243C55.5885 63.8873 55.3166 64.8276 54.9333 65.7243Z" fill="#C4A386"/>
<path d="M63.2691 68.4157C62.7043 68.4091 62.1485 68.2736 61.6443 68.0199C61.1401 67.7655 60.701 67.4002 60.3606 66.9506C60.6265 66.4814 60.985 66.0706 61.4144 65.7434C61.8439 65.4163 62.3354 65.1793 62.8593 65.0467C63.9904 64.7452 65.1566 64.5942 66.3275 64.5984C67.5169 64.5984 68.7063 64.5984 69.5958 64.5984H71.085C71.085 64.5984 70.9751 64.7279 70.7752 64.9273C70.5753 65.1267 70.2654 65.396 69.8856 65.7046C68.9716 66.4557 67.9637 67.0855 66.8872 67.5781C65.7624 68.1327 64.5239 68.4193 63.2691 68.4157Z" fill="#C4A386"/>
<path d="M61.0098 63.861C60.6999 64.2861 60.2897 64.6288 59.8155 64.8581C59.3414 65.0879 58.8179 65.1972 58.2912 65.1769C57.8753 64.1757 57.8503 63.0557 58.2213 62.0378C58.5762 61.1022 59.0753 60.2282 59.7005 59.4467C60.2702 58.6694 60.8499 58.0014 61.2696 57.5333C61.4795 57.2837 61.6595 57.0945 61.7794 56.9649L61.9693 56.7655C61.9693 56.7655 61.9693 56.8855 62.0692 57.0945C62.1446 57.3936 62.2047 57.6963 62.2491 58.0014C62.3963 58.956 62.3963 59.9273 62.2491 60.8814C62.0925 61.9625 61.6664 62.987 61.0098 63.861Z" fill="#C4A386"/>
<path d="M75.2627 55.5597C76.0823 55.3006 76.622 55.1511 76.622 55.1511C76.622 55.1511 76.572 55.2907 76.4621 55.5199C76.3521 55.7491 76.1822 56.0581 75.9723 56.4367C75.7625 56.8157 75.5026 57.2539 75.2027 57.7124C75.0528 57.9416 74.8929 58.1709 74.723 58.4097L74.593 58.5894L74.4231 58.8085L74.0733 59.2473C73.2099 60.3321 72.0612 61.1572 70.7551 61.6288C70.2142 61.8276 69.6321 61.8891 69.0615 61.8073C68.4908 61.7255 67.9496 61.5034 67.4868 61.1608C67.7536 60.0957 68.3957 59.1619 69.2958 58.5297C69.5057 58.3601 69.7456 58.2007 69.9855 58.0312L70.745 57.553L71.5547 57.0843C71.8045 56.9452 72.0644 56.8157 72.3243 56.6957C73.2771 56.2519 74.2588 55.8723 75.2627 55.5597Z" fill="#C4A386"/>
<path d="M67.2063 57.6127C67.0706 58.1165 66.8013 58.575 66.4268 58.9398C66.0522 59.3046 65.5862 59.5619 65.0774 59.6855C64.4178 58.8509 64.0431 57.8276 64.008 56.7655C63.9816 55.8814 64.0419 54.9969 64.1879 54.1245C64.2481 53.6829 64.3417 53.2465 64.4678 52.819C64.5977 52.3805 64.7276 51.9818 64.8576 51.653C64.9875 51.3241 65.0974 51.0451 65.1774 50.8557L65.2873 50.5568L65.4973 50.8557C65.6272 51.055 65.7871 51.3341 65.967 51.6829C66.4315 52.5693 66.8032 53.501 67.0764 54.4633C67.1464 54.7324 67.2164 55.0115 67.2763 55.2905C67.3283 55.5539 67.365 55.8201 67.3863 56.0878C67.4112 56.353 67.4112 56.6198 67.3863 56.8849C67.3493 57.1327 67.2891 57.3762 67.2063 57.6127Z" fill="#C4A386"/>
<path d="M76.5221 51.4734C76.3266 51.6998 76.1126 51.9098 75.8824 52.1012C75.666 52.288 75.4354 52.4579 75.1928 52.6094C74.7396 52.9394 74.2173 53.1629 73.6651 53.263C73.1129 53.3631 72.5452 53.3373 72.0045 53.1874C71.9098 52.6556 71.9441 52.1089 72.1044 51.5929C72.1785 51.3486 72.2825 51.1143 72.4142 50.8953C72.5446 50.6679 72.6881 50.4483 72.844 50.2376C73.5604 49.3399 74.4258 48.5714 75.4027 47.9654C76.2629 47.36 77.1572 46.8043 78.0813 46.3011L79.3406 45.6234C79.3406 45.6234 79.3406 45.7729 79.2607 46.022C79.1807 46.2712 79.0908 46.62 78.9409 47.0186C78.6199 48.0682 78.1665 49.0728 77.5916 50.0083C77.272 50.5225 76.9145 51.0122 76.5221 51.4734Z" fill="#C4A386"/>
<path d="M70.2653 51.0549C70.041 51.5273 69.6963 51.9328 69.2658 52.2309C68.3053 51.6943 67.5894 50.809 67.2669 49.7594C67.1872 49.5147 67.1237 49.265 67.077 49.012L67.017 48.6333C67.017 48.5137 67.017 48.3841 66.957 48.2546C66.8974 47.7453 66.8774 47.2322 66.897 46.7198C66.9305 45.8521 67.0139 44.9869 67.1469 44.1287C67.2069 43.7899 67.2669 43.5108 67.3068 43.3215C67.3468 43.1321 67.3668 43.0225 67.3668 43.0225L67.6167 43.2717C67.8393 43.4924 68.0495 43.7253 68.2463 43.9693C68.8664 44.7266 69.4026 45.5486 69.8455 46.4208C70.3336 47.4041 70.5964 48.4831 70.6151 49.58C70.6127 49.8389 70.5791 50.0965 70.5152 50.3474C70.4587 50.5918 70.3749 50.8292 70.2653 51.0549Z" fill="#C4A386"/>
<path d="M78.5408 42.006C78.4009 42.2705 78.2405 42.5237 78.0611 42.7634C77.8802 42.9961 77.6832 43.216 77.4714 43.4212C77.0888 43.8229 76.621 44.1343 76.1022 44.3326C75.5834 44.5308 75.0268 44.611 74.4729 44.5672C74.2746 44.0674 74.2025 43.5267 74.263 42.9926C74.2936 42.7383 74.3505 42.4878 74.4329 42.2452C74.497 41.9933 74.5806 41.7467 74.6828 41.5077C74.9236 41.0033 75.2221 40.5284 75.5723 40.0926L76.1121 39.4149C76.292 39.1856 76.4919 38.9664 76.6818 38.7472C77.4714 37.8901 78.3309 37.0929 78.9406 36.5049C79.5502 35.9169 80 35.5282 80 35.5282C80 35.5282 80 36.1262 80 37.0231C79.9534 37.5381 79.88 38.0504 79.7802 38.5578C79.7202 38.8369 79.6602 39.1259 79.5902 39.4149C79.5255 39.7121 79.4421 40.005 79.3404 40.2918C79.1138 40.8809 78.8467 41.4537 78.5408 42.006Z" fill="#C4A386"/>
<path d="M71.5943 43.9194C70.5706 43.5771 69.7117 42.8664 69.1856 41.9262C69.0577 41.7095 68.9474 41.4829 68.8558 41.2486C68.7414 41.0191 68.6413 40.7828 68.5559 40.541C68.3986 40.0761 68.2783 39.5996 68.1961 39.1159C68.1062 38.6475 68.0062 38.1891 67.9562 37.7705C67.9562 37.5512 67.9562 37.352 67.8962 37.1626C67.8363 36.9732 67.8962 36.7939 67.8962 36.6244C67.8412 36.2613 67.8078 35.8953 67.7963 35.5282C67.7963 35.5282 68.2361 35.7773 68.8657 36.2258L69.3755 36.6045C69.5554 36.754 69.7353 36.9035 69.9152 37.0729C70.3055 37.4212 70.6696 37.7976 71.0046 38.1991C71.1745 38.4083 71.3444 38.6276 71.5044 38.8568L71.7242 39.2056L71.9142 39.5744C72.1522 40.0513 72.327 40.5572 72.4339 41.0792C72.4896 41.3311 72.5164 41.5886 72.5139 41.8465C72.4991 42.0958 72.4589 42.3429 72.3939 42.584C72.2502 43.0917 71.9743 43.5524 71.5943 43.9194Z" fill="#C4A386"/>
<path d="M75.7518 29.5487C76.0216 29.0305 76.3115 28.5521 76.5913 28.0638L77.3609 26.8181C77.8107 26.0906 78.1405 25.6222 78.1405 25.6222C78.1405 25.6222 78.3104 26.1903 78.4903 27.0672C78.5503 27.5157 78.6202 28.0638 78.6602 28.6119C78.6602 28.891 78.6602 29.19 78.6602 29.489C78.6602 29.7879 78.6602 30.0968 78.6602 30.4058C78.6115 31.0242 78.5112 31.6376 78.3604 32.2395C78.2031 32.8168 77.9678 33.37 77.6607 33.8839C77.3848 34.3639 77.0013 34.7739 76.54 35.0816C76.0788 35.3894 75.5525 35.5866 75.0022 35.6578C74.8525 35.4311 74.7316 35.1867 74.6423 34.9303C74.5479 34.6894 74.4808 34.4386 74.4425 34.1828C74.3657 33.6716 74.3895 33.1503 74.5124 32.6481C74.6268 32.1094 74.7908 31.5823 75.0022 31.0735C75.222 30.5453 75.4919 30.0072 75.7518 29.5487Z" fill="#C4A386"/>
<path d="M69.2853 34.0532C68.9316 33.7076 68.6227 33.3193 68.3657 32.8972C68.085 32.5015 67.8408 32.0812 67.6361 31.6415C67.5262 31.4322 67.4462 31.223 67.3463 31.0236L67.0864 30.4257C66.9265 30.037 66.8065 29.6783 66.6966 29.3693C66.4667 28.7614 66.3568 28.3728 66.3568 28.3728C66.7733 28.4802 67.1837 28.61 67.5862 28.7614C68.4859 29.0986 69.3364 29.5544 70.1148 30.1168C70.3422 30.2719 70.5592 30.4417 70.7645 30.625C70.9643 30.8077 71.1545 31.0006 71.3342 31.203C71.6929 31.6038 71.9924 32.0534 72.2237 32.5384C72.4284 32.9964 72.5339 33.4921 72.5336 33.9935C72.5404 34.243 72.5066 34.4921 72.4336 34.7309C72.3514 34.9867 72.2372 35.2311 72.0938 35.4584C71.0214 35.3327 70.0274 34.8353 69.2853 34.0532Z" fill="#C4A386"/>
<path d="M72.7941 26.3398C72.638 26.137 72.5071 25.9162 72.4042 25.6821C72.3056 25.4514 72.2318 25.2109 72.1844 24.9645C72.1844 24.7154 72.1145 24.4563 72.0844 24.1971C72.0521 23.654 72.0823 23.109 72.1744 22.5727C72.2505 21.9987 72.3607 21.4296 72.5042 20.8686C72.7941 19.7325 73.1039 18.6661 73.3937 17.8788C73.6836 17.0915 73.8635 16.4935 73.8635 16.4935C73.8635 16.4935 73.9435 16.6232 74.0634 16.8424C74.1833 17.0616 74.3433 17.4005 74.5331 17.839C74.9857 18.8403 75.3211 19.8903 75.5327 20.9682C75.6319 21.5648 75.6887 22.1675 75.7026 22.7721C75.6991 23.0722 75.6758 23.3719 75.6326 23.6689C75.5857 23.9547 75.5223 24.2376 75.4427 24.5161C75.2975 25.0469 75.0383 25.54 74.6831 25.9611C74.3198 26.4004 73.8527 26.7429 73.3238 26.9577C73.1198 26.7767 72.9416 26.5688 72.7941 26.3398Z" fill="#C4A386"/>
<path d="M63.3186 22.0147C63.2087 21.8552 63.1587 21.7655 63.1587 21.7655H63.5085C63.7484 21.7655 64.0582 21.7655 64.438 21.8453C64.8178 21.925 65.2676 21.9649 65.7473 22.0745C65.9872 22.1243 66.2371 22.1941 66.4869 22.2638C66.7368 22.3336 66.9767 22.4332 67.2265 22.5329C67.7379 22.7263 68.227 22.9735 68.6858 23.2704C69.1239 23.5498 69.5237 23.8847 69.8752 24.267C70.0368 24.4588 70.1744 24.6696 70.285 24.8948C70.3933 25.1153 70.4802 25.3455 70.5448 25.5824C70.613 25.8223 70.6466 26.0706 70.6448 26.3199C70.6229 26.5869 70.5727 26.8508 70.4948 27.1072C69.9502 27.2129 69.3903 27.2129 68.8457 27.1072C68.3486 26.9936 67.8706 26.809 67.4264 26.5591C67.2165 26.4295 67.0066 26.3 66.8067 26.1505L66.5269 25.9213L66.2371 25.6821C65.8758 25.3791 65.5414 25.0457 65.2375 24.6855C64.9375 24.3708 64.6571 24.0379 64.398 23.6889L64.2181 23.4298L64.0482 23.2006C63.9282 23.0412 63.8283 22.8917 63.7384 22.7621C63.6484 22.6326 63.4085 22.1841 63.3186 22.0147Z" fill="#C4A386"/>
<path d="M69.5355 19.0049C69.0632 18.7748 68.6548 18.4326 68.3462 18.0083C68.0369 17.6042 67.8094 17.1438 67.6766 16.6529C67.1328 14.5595 67.2767 12.3352 67.4666 10.2051C67.5566 9.37789 67.6465 8.8198 67.6465 8.8198C68.0509 9.13343 68.357 9.49749 68.656 9.91604C68.9591 10.3119 69.2394 10.7244 69.4956 11.1518C69.7941 11.6497 70.0611 12.1655 70.2952 12.6965C70.5327 13.251 70.7233 13.8244 70.8649 14.4107C70.9834 14.9806 71.0304 15.5631 71.0048 16.1447C70.9908 16.7008 70.8515 17.2467 70.5972 17.7418C70.3428 18.2369 69.98 18.6686 69.5355 19.0049Z" fill="#C4A386"/>
<path d="M61.1402 18.4067C60.7504 18.1177 60.3906 17.8387 60.0708 17.5596C59.7509 17.2806 59.4511 17.0115 59.2212 16.7823C58.9913 16.5531 58.7814 16.3538 58.6515 16.2143L58.4416 15.995C58.8645 15.91 59.2915 15.8468 59.7209 15.8057C60.1494 15.7639 60.5799 15.7473 61.0103 15.7559C61.5324 15.7522 62.054 15.7922 62.5694 15.8755C63.6463 16.0002 64.676 16.3869 65.5679 17.0016C65.9711 17.3048 66.3107 17.6841 66.5674 18.1177C66.7936 18.5719 66.9002 19.0761 66.8772 19.5827C65.8908 20.0081 64.7837 20.0647 63.7588 19.7422C63.2782 19.6032 62.8154 19.4093 62.3795 19.1642C61.9479 18.9432 61.5336 18.69 61.1402 18.4067Z" fill="#C4A386"/>
<path d="M64.3315 13.8665C63.7436 13.8665 62.826 13.9203 62.0793 13.4042C61.8769 13.2562 61.6833 13.0965 61.4997 12.9258C61.3074 12.7557 61.127 12.5725 60.9599 12.3777C60.599 11.9889 60.2651 11.576 59.9605 11.1419C59.3808 10.2849 58.881 9.39793 58.5212 8.73023C58.3413 8.40134 58.2156 8.11249 58.1157 7.9132L58.0481 7.74296L58.0115 7.62402L58.4772 7.65667C58.7871 7.69751 58.9683 7.72474 59.2709 7.80343C60.2257 8.0451 61.1459 8.40677 62.0094 8.87973C63.0069 9.39441 63.8695 10.1351 64.528 11.0423C64.8336 11.4733 65.0385 11.9671 65.1277 12.4874C65.2272 12.9236 65.2244 13.3615 65.1277 13.8128" fill="#C4A386"/>
<g clip-path="url(#clip1_121_52)">
<path d="M41.5839 31.0388V28.4332C43.696 27.7212 45.0766 26.028 45.1193 23.96H41.9744C41.9475 24.4649 41.7273 24.94 41.3596 25.2865C40.9919 25.6329 40.5051 25.8241 40.0003 25.8202C39.4954 25.8242 39.0085 25.633 38.6407 25.2865C38.2729 24.9401 38.0527 24.4649 38.0257 23.96H34.8812C34.9239 26.028 36.3044 27.7212 38.4164 28.4332V31.0388C35.6654 31.4397 33.1679 32.869 31.4263 35.0394C29.6846 37.2098 28.828 39.9602 29.0287 42.7374C29.2293 45.5147 30.4723 48.1129 32.5078 50.0095C34.5433 51.9061 37.2202 52.9604 40.0002 52.9604C42.7801 52.9604 45.457 51.9061 47.4925 50.0095C49.528 48.1129 50.771 45.5147 50.9717 42.7374C51.1723 39.9602 50.3157 37.2098 48.574 35.0394C46.8324 32.869 44.3349 31.4397 41.5839 31.0388H41.5839ZM40.0002 50.0291C38.1299 50.0272 36.3183 49.3758 34.8738 48.1859C33.4293 46.996 32.4415 45.3412 32.0786 43.5035H35.3306C36.037 45.616 37.8609 47.0113 39.9562 47.031V43.879C39.4379 43.879 38.9407 43.6727 38.5742 43.3056C38.2076 42.9384 38.0017 42.4405 38.0017 41.9212C38.0017 41.402 38.2076 40.904 38.5742 40.5369C38.9407 40.1697 39.4379 39.9635 39.9562 39.9635V36.8118C37.861 36.8315 36.0371 38.2268 35.3306 40.3395H32.0863C32.3891 38.8389 33.1109 37.4553 34.1678 36.3494C35.2247 35.2436 36.5732 34.4609 38.0567 34.0924C39.5401 33.7238 41.0975 33.7846 42.5478 34.2677C43.9981 34.7507 45.2818 35.6361 46.2495 36.821C47.2173 38.0059 47.8294 39.4417 48.0147 40.9612C48.2 42.4808 47.9509 44.0219 47.2964 45.4053C46.6418 46.7887 45.6087 47.9576 44.3171 48.7761C43.0255 49.5946 41.5285 50.0291 40.0002 50.0291L40.0002 50.0291Z" fill="#C4A386"/>
</g>
</g>
<defs>
<clipPath id="clip0_121_52">
<rect width="80" height="80" fill="white" transform="translate(0 0.459961)"/>
</clipPath>
<clipPath id="clip1_121_52">
<rect width="22" height="29" fill="white" transform="translate(29 23.96)"/>
</clipPath>
</defs>
</svg>
